<?xml version="1.0" encoding="UTF-8" standalone="no"?>
<svg width="80px" height="80px" viewBox="0 0 80 80" version="1.1" xmlns="http://www.w3.org/2000/svg" xmlns:xlink="http://www.w3.org/1999/xlink">
    <!-- Generator: Sketch 46.2 (44496) - http://www.bohemiancoding.com/sketch -->
    <title>icon-training</title>
    <desc>Created with Sketch.</desc>
    <defs></defs>
    <g id="Home" stroke="none" stroke-width="1" fill="none" fill-rule="evenodd">
        <g id="Traning-index-v1" transform="translate(-920.000000, -507.000000)">
            <g id="Hero">
                <g id="Des" transform="translate(640.000000, 507.000000)">
                    <g id="icon-training" transform="translate(280.000000, 0.000000)">
                        <rect id="Rectangle-5" stroke="#FFFFFF" x="0.5" y="0.5" width="79" height="79" rx="1"></rect>
                        <path d="M59.780483,50.2110016 C59.6345097,50.0699507 59.4472329,50 59.2192512,50 L35.7809186,50 C35.5531079,50 35.3658311,50.0700328 35.2193447,50.2110016 C35.0730294,50.3514778 35,50.5309524 35,50.7498358 L35,52.2501642 C35,52.4687192 35.0730294,52.6486043 35.2193447,52.7889984 C35.3658311,52.9295567 35.5531079,53 35.7809186,53 L59.2192512,53 C59.4472329,53 59.6345097,52.9295567 59.780483,52.7889984 C59.9267984,52.6485222 59.9999988,52.4687192 59.9999988,52.2501642 L59.9999988,50.7498358 C60.0003409,50.5309524 59.9274825,50.3514778 59.780483,50.2110016 L59.780483,50.2110016 Z" id="Shape" fill="#FFFFFF"></path>
                        <path d="M22.5495218,27.2405601 C22.3891814,27.0802709 22.2046594,27 21.9962085,27 C21.7877575,27 21.6034882,27.0802709 21.4432321,27.2405601 L20.2403,28.4431923 C20.0800438,28.6033973 20,28.7876077 20,28.9961605 C20,29.2048818 20.0800438,29.389008 20.2403,29.5492972 L29.6945697,39.0002948 L20.2403,48.4513766 C20.0800438,48.6116658 20,48.7961289 20,49.0042606 C20,49.2129819 20.0800438,49.3971923 20.2403,49.5573973 L21.4431478,50.7596083 C21.6034882,50.9201502 21.7876733,51 21.9961242,51 C22.2045751,51 22.3891814,50.9198975 22.5494376,50.7596083 L33.7596158,39.553263 C33.9199562,39.3930581 34,39.208258 34,38.9998737 C34,38.7915735 33.9199562,38.6071104 33.7596158,38.4469054 L22.5495218,27.2405601 L22.5495218,27.2405601 Z" id="Shape" fill="#FFFFFF"></path>
                    </g>
                </g>
            </g>
        </g>
    </g>
</svg>