<?xml version="1.0" encoding="UTF-8" standalone="no"?>
<svg width="1440px" height="802px" viewBox="0 0 1440 802" version="1.1" xmlns="http://www.w3.org/2000/svg" xmlns:xlink="http://www.w3.org/1999/xlink">
    <!-- Generator: Sketch 46.2 (44496) - http://www.bohemiancoding.com/sketch -->
    <title>item-card</title>
    <desc>Created with Sketch.</desc>
    <defs>
        <linearGradient x1="50%" y1="0%" x2="50%" y2="100%" id="linearGradient-1">
            <stop stop-color="#FC1126" offset="0%"></stop>
            <stop stop-color="#9F041B" offset="100%"></stop>
        </linearGradient>
        <linearGradient x1="50%" y1="0%" x2="50%" y2="100%" id="linearGradient-2">
            <stop stop-color="#F5515F" offset="0%"></stop>
            <stop stop-color="#9F041B" offset="100%"></stop>
        </linearGradient>
    </defs>
    <g id="Home" stroke="none" stroke-width="1" fill="none" fill-rule="evenodd">
        <g id="Traning-Detail" transform="translate(-240.000000, -193.000000)">
            <g id="Full-Poster" transform="translate(240.000000, 193.000000)">
                <g id="item-card">
                    <rect id="Wrap" fill="#F60000" x="0" y="2" width="1440" height="800"></rect>
                    <g id="Group-2" transform="translate(376.000000, 0.000000)">
                        <polygon id="Rectangle-3" fill="url(#linearGradient-1)" opacity="0.214956975" points="524.977761 0 877.795891 0 400.272399 748.619413 0.437999389 801"></polygon>
                        <polygon id="Rectangle-3" fill="url(#linearGradient-2)" opacity="0.206012228" points="739.507812 70.2615008 1061.81818 70.2615008 625.585571 754.148699 260.324369 802"></polygon>
                    </g>
                    <path d="M650.999366,449.001268 C643.820044,449.001268 638,443.179956 638,436.000634 C638,428.821312 643.820044,423 650.999366,423 C658.179956,423 664,428.821312 664,436.000634 C664,443.179956 658.179956,449.001268 650.999366,449.001268 Z" id="Fill-1" fill="#252525"></path>
                    <path d="M696.5,377 C689.044447,377 683,370.955553 683,363.5 C683,356.044447 689.044447,350 696.5,350 C703.955553,350 710,356.044447 710,363.5 C710,370.955553 703.955553,377 696.5,377 Z" id="Fill-3" fill="#252525"></path>
                    <polygon id="Fill-10" fill="#252525" transform="translate(739.644799, 435.644799) rotate(25.000000) translate(-739.644799, -435.644799) " points="752.169799 431.374799 743.914799 431.374799 743.914799 423.119799 735.374799 423.119799 735.374799 431.374799 727.119799 431.374799 727.119799 439.914799 735.374799 439.914799 735.374799 448.169799 743.914799 448.169799 743.914799 439.914799 752.169799 439.914799"></polygon>
                </g>
            </g>
        </g>
    </g>
</svg>