<?xml version="1.0" encoding="UTF-8" standalone="no"?>
<svg width="823px" height="238px" viewBox="0 0 823 238" version="1.1" xmlns="http://www.w3.org/2000/svg" xmlns:xlink="http://www.w3.org/1999/xlink">
    <!-- Generator: Sketch 40.3 (33839) - http://www.bohemiancoding.com/sketch -->
    <title>logo-opsta</title>
    <desc>Created with Sketch.</desc>
    <defs></defs>
    <g id="Page-1" stroke="none" stroke-width="1" fill="none" fill-rule="evenodd">
        <g id="opsta-logo" transform="translate(-1140.000000, -406.000000)">
            <g id="logo-opsta" transform="translate(1140.000000, 406.000000)">
                <g id="Group" transform="translate(56.000000, 20.000000)">
                    <path d="M187.2,104.9 C187.2,93.7 188.6,83.6 191.3,74.8 C194.1,66 198.5,58.5 204.5,52.3 C210.6,46.1 218.2,41.4 227.6,38.1 C236.9,34.8 248.3,33.1 261.7,33.1 C275.7,33.5 288.2,36.1 299.3,41.1 C304,43.2 308.6,46 313.2,49.4 C317.8,52.8 321.8,57 325.3,62.1 C328.8,67.2 331.7,73.2 333.9,80.2 C336.1,87.2 337.2,95.3 337.2,104.6 C337.2,113.9 336.2,122 334.2,129 C332.2,136 329.5,141.9 326.2,146.9 C322.9,151.9 319.2,156 315,159.3 C310.9,162.6 306.6,165.3 302.1,167.5 C291.9,172.3 280.2,174.8 267.1,175 C260.5,174.6 254.1,173.5 248,171.5 C242.7,169.7 237.3,166.9 231.8,162.9 C226.3,159 221.7,153.3 218.1,145.8 L225.1,153.6 L225.1,217.3 L187.2,217.3 L187.2,104.9 L187.2,104.9 Z M261.7,64.8 C253.4,64.8 246.8,66 241.9,68.3 C237,70.6 233.3,73.7 230.9,77.5 C228.5,81.3 226.9,85.6 226.1,90.4 C225.4,95.1 225,99.9 225,104.7 C225,108.6 225.4,112.9 226.3,117.6 C227.1,122.2 228.9,126.6 231.6,130.6 C234.3,134.6 238,138 242.8,140.6 C247.6,143.3 253.9,144.6 261.8,144.6 C269.7,144.6 276,143.3 280.8,140.6 C285.6,137.9 289.2,134.6 291.8,130.6 C294.4,126.6 296,122.3 296.9,117.6 C297.7,113 298.2,108.7 298.2,104.7 C298.2,100.8 297.8,96.5 296.9,91.8 C296,87.2 294.4,82.8 291.8,78.8 C289.3,74.8 285.6,71.4 280.8,68.8 C275.9,66.1 269.6,64.8 261.7,64.8 L261.7,64.8 Z" id="Shape" fill="#323C49"></path>
                    <path d="M490.1,115.1 C487.4,110.7 483.8,107 479.4,104.2 C475,101.3 470.1,99.1 464.6,97.6 C459.1,96 453.7,94.9 448.3,94.2 C442.9,93.5 408.2,90.4 403.6,88.4 C399,86.4 397.1,83.5 396.8,79.7 C396.2,70.8 405.6,68.7 410,68.4 C417.2,67.9 425.6,68.1 425.6,68.1 L486.8,68.1 L486.3,37.1 C455.4,37.3 410.4,36.5 397,38.9 C389.6,40.2 383.1,43.1 377.4,46.6 C371.7,50 367.1,54.5 363.5,60 C360,65.5 358.2,71.9 358.1,79.3 C358,86 360.1,91.5 363.1,96.8 C366.2,102.3 370.9,107.3 376.5,110.6 C382,113.9 388.3,116.1 395.2,117.8 C402.1,119.5 414,121.3 421,121.9 C431.5,122.8 440.6,123.2 447.1,125.7 C448.8,126.4 453.9,129.5 453.9,134.2 C453.9,138.9 451.8,141.6 447.6,143.1 C442.6,144.9 432.7,144.8 432.7,144.8 L363.8,144.8 L363.8,176.4 L424.4,176.4 C424.4,176.4 440.4,176 445.4,175.4 C453.6,174.4 461.3,172.7 468.4,169.6 C475.6,166.5 481.6,162 486.6,156 C491.6,150 494.1,141.9 494.2,131.7 C494.2,125 492.9,119.5 490.1,115.1 L490.1,115.1 Z" id="Shape" fill="#323C49"></path>
                    <path d="M554.4,68.5 L554.4,125.4 C554.4,133.1 559.3,139.9 574.5,139.9 L598.7,139.9 L598.7,172.3 L559.8,172.3 C551.5,171.6 544.1,169.6 537.5,166.4 C532,163.7 526.9,159.8 522.4,154.5 C517.8,149.2 515.6,142 515.6,132.7 L515.6,0.3 L554.5,0.3 L554.5,36.7 L591.1,36.7 L591.1,68.6 L554.4,68.6 L554.4,68.5 Z" id="Shape" fill="#323C49"></path>
                    <path d="M766.6,172.4 L728.7,172.4 L728.7,153.7 L735.7,145.9 C732.1,153.4 727.5,159.1 722,163 C716.5,166.9 711.1,169.8 705.7,171.6 C699.5,173.6 693.2,174.7 686.6,175.1 C673.4,174.9 661.7,172.4 651.6,167.6 C647.1,165.5 642.8,162.7 638.7,159.4 C634.6,156.1 630.8,152 627.5,147 C624.2,142 621.5,136 619.5,129.1 C617.5,122.1 616.5,114 616.5,104.7 C616.5,95.4 617.6,87.3 619.7,80.3 C621.8,73.3 624.6,67.3 628.1,62.2 C631.6,57.1 635.6,52.9 640.2,49.5 C644.8,46.1 649.4,43.3 654.1,41.2 C665.1,36.2 677.8,33.5 692,33.2 C705.4,33.2 716.7,34.9 726.1,38.2 C735.4,41.5 743.1,46.2 749.2,52.4 C755.3,58.6 759.7,66.1 762.4,74.9 C765.2,83.7 766.5,93.8 766.5,105 L766.5,172.4 L766.6,172.4 Z M692.1,64.8 C684.2,64.8 677.9,66.1 673.1,68.8 C668.3,71.5 664.7,74.8 662.1,78.8 C659.6,82.8 657.8,87.1 657,91.8 C656.1,96.4 655.7,100.7 655.7,104.7 C655.7,108.6 656.1,112.9 657,117.6 C657.8,122.2 659.5,126.6 662.1,130.6 C664.7,134.6 668.3,138 673.1,140.6 C677.9,143.3 684.2,144.6 692.1,144.6 C700,144.6 706.3,143.3 711.1,140.6 C715.9,137.9 719.6,134.6 722.3,130.6 C725,126.6 726.7,122.3 727.6,117.6 C728.4,113 728.9,108.7 728.9,104.7 C728.9,99.9 728.5,95.1 727.8,90.4 C727.1,85.7 725.5,81.4 723,77.5 C720.6,73.7 716.9,70.6 712,68.3 C706.9,65.9 700.3,64.8 692.1,64.8 L692.1,64.8 Z" id="Shape" fill="#323C49"></path>
                    <path d="M75.5,79.3 L41.3,45.1 L38,41.8 L18.8,22.6 C14.7,18.5 8,18.5 3.9,22.6 C-0.2,26.7 -0.2,33.4 3.9,37.5 L21,54.6 L27.6,61.2 L60.6,94.2 C64.7,98.3 71.4,98.3 75.5,94.2 C79.6,90.1 79.6,83.4 75.5,79.3 L75.5,79.3 Z" id="Shape" fill="#F17273"></path>
                </g>
                <path d="M222.7,112.6 C222.7,100.8 221.4,90.5 218.7,81.9 C216.1,73.4 212.7,66 208.5,60.1 C204.6,54.6 200.2,50 195.3,46.2 C194.8,45.8 194.2,45.3 193.7,44.9 C188,40.7 182.1,37.1 176.4,34.5 C162.5,28.2 146.3,24.8 128.5,24.3 C123.3,24.4 118.4,24.8 113.5,25.5 L147.3,59.3 C150.1,60.1 152.7,61.2 155,62.5 C161.7,66.3 166.9,71 170.4,76.6 C174,82.2 176.4,88.3 177.6,94.8 C178.8,101.3 179.4,107.2 179.4,112.7 C179.4,118.2 178.8,124.1 177.6,130.6 C177.6,130.8 177.5,130.9 177.5,131.1 L177.6,131.2 C176.4,137.6 174,143.6 170.5,149.2 C166.9,154.8 161.8,159.5 155.1,163.3 C152.5,164.7 149.7,165.9 146.5,166.8 L146.1,166.4 C141,167.8 135.2,168.6 128.4,168.6 C117.4,168.6 108.5,166.7 101.8,163 C95.1,159.2 89.9,154.6 86.4,148.9 C83.7,144.6 81.7,140.1 80.3,135.4 L36,91 C35.3,94.7 34.8,98.6 34.5,102.8 C34.5,103.3 34.4,103.8 34.4,104.3 L34.4,104.9 C34.3,107.4 34.2,110 34.2,112.6 L34.2,112.7 L34.2,112.8 C34.2,124.6 35.5,135 38.2,143.6 C40.8,152.1 44.2,159.5 48.4,165.5 C52.5,171.4 57.3,176.3 62.7,180.2 C64.7,181.6 66.7,183 68.7,184.2 C72.7,186.8 76.6,189 80.6,190.8 C94.5,197.1 110.7,200.5 128.5,201 C144.8,200.6 159.6,197.7 172.5,192.6 L172.1,192.2 C173.6,191.6 175,191.1 176.4,190.5 C182.2,187.8 188.1,184.3 193.9,180.2 C199.2,176.4 204,171.4 208.2,165.5 C208.7,164.7 209.3,164 209.8,163.1 L209.9,163.2 C213.5,157.5 216.5,150.8 218.9,143.2 C220.7,137.3 221.9,130.6 222.4,123.1 C222.5,122.4 222.5,121.7 222.6,121.1 L222.6,121 C222.8,118.4 222.8,115.6 222.8,112.8 L222.8,112.7 C222.7,112.7 222.7,112.6 222.7,112.6 L222.7,112.6 Z" id="Shape" fill="#323C49"></path>
                <path d="M79.9,91.3 L48.7,60.1 L18.5,29.9 C14.4,25.8 7.7,25.8 3.6,29.9 C-0.5,34 -0.5,40.7 3.6,44.8 L38.9,80.1 L77.7,118.9 C77.5,116.7 77.4,114.6 77.4,112.5 C77.4,107 78,101 79.2,94.5 C79.4,93.5 79.7,92.4 79.9,91.3 L79.9,91.3 Z" id="Shape" fill="#ADCA00"></path>
                <path d="M102.7,27.4 L79.2,3.9 C75.1,-0.2 68.4,-0.2 64.3,3.9 C60.2,8 60.2,14.7 64.3,18.8 L80.5,35 L105.8,60.3 C111.9,57.8 119.4,56.6 128.4,56.6 C129.6,56.6 130.8,56.6 132,56.7 L102.7,27.4 L102.7,27.4 Z" id="Shape" fill="#00ADF2"></path>
            </g>
        </g>
    </g>
</svg>