<?xml version="1.0" encoding="UTF-8" standalone="no"?>
<svg width="248px" height="72px" viewBox="0 0 248 72" version="1.1" xmlns="http://www.w3.org/2000/svg" xmlns:xlink="http://www.w3.org/1999/xlink">
    <!-- Generator: Sketch 46.2 (44496) - http://www.bohemiancoding.com/sketch -->
    <title>Logo</title>
    <desc>Created with Sketch.</desc>
    <defs></defs>
    <g id="Home" stroke="none" stroke-width="1" fill="none" fill-rule="evenodd">
        <g id="Traning-index-v1" transform="translate(-836.000000, -206.000000)" fill-rule="nonzero">
            <g id="Hero">
                <g id="Logo" transform="translate(836.000000, 206.000000)">
                    <g id="Group" transform="translate(17.000000, 6.000000)">
                        <path d="M56.379661,31.7587156 C56.379661,28.3678899 56.8013038,25.3100917 57.614472,22.6458716 C58.4577575,19.9816514 59.7829205,17.7110092 61.5899609,15.833945 C63.4271186,13.9568807 65.7160365,12.533945 68.5470665,11.5348624 C71.3479791,10.5357798 74.7813559,10.0211009 78.8170795,10.0211009 C83.0335072,10.1422018 86.7981747,10.9293578 90.1411995,12.4431193 C91.5567145,13.0788991 92.9421121,13.9266055 94.3275098,14.9559633 C95.7129074,15.9853211 96.917601,17.2568807 97.971708,18.8009174 C99.0258149,20.3449541 99.8992177,22.1614679 100.561799,24.2807339 C101.224381,26.4 101.555671,28.8522936 101.555671,31.6678899 C101.555671,34.4834862 101.254498,36.9357798 100.652151,39.0550459 C100.049804,41.1743119 99.2366362,42.9605505 98.242764,44.4743119 C97.2488918,45.9880734 96.1345502,47.2293578 94.8696219,48.2284404 C93.634811,49.2275229 92.3397653,50.0449541 90.984485,50.7110092 C87.9125163,52.1642202 84.3887875,52.9211009 80.4434159,52.9816514 C78.4556714,52.8605505 76.5281617,52.5275229 74.6910039,51.9220183 C73.0947849,51.3770642 71.4684485,50.5293578 69.8119948,49.3183486 C68.1555411,48.1376147 66.7701434,46.4119266 65.6859192,44.1412844 L67.794133,46.5027523 L67.794133,65.7880734 L56.379661,65.7880734 L56.379661,31.7587156 L56.379661,31.7587156 Z M78.8170795,19.6183486 C76.3173403,19.6183486 74.3295958,19.9816514 72.8538462,20.6779817 C71.3780965,21.3743119 70.2637549,22.312844 69.5409387,23.4633028 C68.8181226,24.6137615 68.3362451,25.9155963 68.0953064,27.3688073 C67.884485,28.7917431 67.7640156,30.2449541 67.7640156,31.6981651 C67.7640156,32.8788991 67.884485,34.1807339 68.1555411,35.6036697 C68.3964798,36.9963303 68.9385919,38.3284404 69.7517601,39.5394495 C70.5649283,40.7504587 71.6792699,41.7798165 73.1249022,42.5669725 C74.5705346,43.3844037 76.467927,43.7779817 78.8471969,43.7779817 C81.2264668,43.7779817 83.1238592,43.3844037 84.5694915,42.5669725 C86.0151239,41.7495413 87.0993481,40.7504587 87.882399,39.5394495 C88.6654498,38.3284404 89.1473272,37.0266055 89.4183833,35.6036697 C89.659322,34.2110092 89.8099087,32.9091743 89.8099087,31.6981651 C89.8099087,30.5174312 89.6894394,29.2155963 89.4183833,27.7926606 C89.1473272,26.4 88.6654498,25.0678899 87.882399,23.8568807 C87.1294654,22.6458716 86.0151239,21.6165138 84.5694915,20.8293578 C83.0937419,20.0119266 81.1963494,19.6183486 78.8170795,19.6183486 Z" id="Shape" fill="#FFFFFF"></path>
                        <path d="M147.605085,34.846789 C146.791917,33.5146789 145.707692,32.3944954 144.382529,31.546789 C143.057366,30.6688073 141.581617,30.0027523 139.925163,29.5486239 C138.268709,29.0642202 136.642373,28.7311927 135.016037,28.5192661 C133.3897,28.3073394 122.938983,27.3688073 121.553585,26.7633028 C120.168188,26.1577982 119.595958,25.2798165 119.505606,24.1293578 C119.324902,21.4348624 122.155932,20.7990826 123.481095,20.7082569 C125.649544,20.5568807 128.1794,20.6174312 128.1794,20.6174312 L146.611213,20.6174312 L146.460626,11.2321101 C137.154368,11.2926606 123.601565,11.0504587 119.565841,11.7770642 C117.337158,12.1706422 115.379531,13.0486239 113.662842,14.1082569 C111.946154,15.1376147 110.560756,16.5 109.476532,18.1651376 C108.422425,19.8302752 107.880313,21.7678899 107.850196,24.0082569 C107.820078,26.0366972 108.452542,27.7018349 109.356063,29.306422 C110.2897,30.9715596 111.705215,32.4853211 113.391786,33.4844037 C115.04824,34.4834862 116.945632,35.1495413 119.023729,35.6642202 C121.101825,36.1788991 124.685789,36.7238532 126.794003,36.9055046 C129.956323,37.1779817 132.697001,37.2990826 134.654628,38.0559633 C135.166623,38.2678899 136.702608,39.206422 136.702608,40.6293578 C136.702608,42.0522936 136.070143,42.8697248 134.805215,43.3238532 C133.299348,43.8688073 130.317731,43.8385321 130.317731,43.8385321 L109.566884,43.8385321 L109.566884,53.4055046 L127.817992,53.4055046 C127.817992,53.4055046 132.636767,53.2844037 134.142634,53.1027523 C136.612256,52.8 138.931291,52.2853211 141.069622,51.346789 C143.23807,50.4082569 145.045111,49.0458716 146.550978,47.2293578 C148.056845,45.412844 148.809778,42.9605505 148.839896,39.8724771 C148.839896,37.8440367 148.44837,36.1788991 147.605085,34.846789 Z" id="Shape" fill="#FFFFFF"></path>
                        <path d="M166.970535,20.7385321 C166.970535,20.7385321 166.970535,37.1174312 166.970535,37.9651376 C166.970535,40.2963303 168.446284,42.3550459 173.02412,42.3550459 L180.312516,42.3550459 L180.312516,52.1642202 L168.596871,52.1642202 C166.097132,51.9522936 163.868449,51.346789 161.880704,50.3779817 C160.22425,49.5605505 158.688266,48.3798165 157.332986,46.7752294 C155.947588,45.1706422 155.285007,42.9908257 155.285007,40.1752294 L155.285007,0.0908256881 L167.000652,0.0908256881 L167.000652,11.1110092 L178.023598,11.1110092 L178.023598,20.7688073 L166.970535,20.7688073 L166.970535,20.7385321 Z" id="Shape" fill="#FFFFFF"></path>
                        <path d="M230.879531,52.1944954 L219.465059,52.1944954 L219.465059,46.5330275 L221.573272,44.1715596 C220.489048,46.4422018 219.103651,48.1678899 217.447197,49.3486239 C215.790743,50.5293578 214.164407,51.4073394 212.53807,51.9522936 C210.670795,52.5577982 208.773403,52.8908257 206.785658,53.0119266 C202.810169,52.9513761 199.286441,52.1944954 196.244589,50.7412844 C194.889309,50.1055046 193.594263,49.2577982 192.359452,48.2587156 C191.124641,47.259633 189.980183,46.0183486 188.98631,44.5045872 C187.992438,42.9908257 187.17927,41.1743119 186.576923,39.0853211 C185.974576,36.966055 185.673403,34.5137615 185.673403,31.6981651 C185.673403,28.8825688 186.004694,26.4302752 186.637158,24.3110092 C187.269622,22.1917431 188.112907,20.3752294 189.167014,18.8311927 C190.221121,17.287156 191.425815,16.0155963 192.811213,14.9862385 C194.19661,13.9568807 195.582008,13.1091743 196.997523,12.4733945 C200.31043,10.959633 204.135332,10.1422018 208.411995,10.0513761 C212.447718,10.0513761 215.850978,10.566055 218.682008,11.5651376 C221.48292,12.5642202 223.801956,13.987156 225.639113,15.8642202 C227.476271,17.7412844 228.801434,20.0119266 229.614602,22.6761468 C230.457888,25.340367 230.849413,28.3981651 230.849413,31.7889908 L230.849413,52.1944954 L230.879531,52.1944954 Z M208.442112,19.6183486 C206.062842,19.6183486 204.16545,20.0119266 202.719817,20.8293578 C201.274185,21.646789 200.189961,22.6458716 199.40691,23.8568807 C198.653977,25.0678899 198.111864,26.3697248 197.870926,27.7926606 C197.59987,29.1853211 197.4794,30.487156 197.4794,31.6981651 C197.4794,32.8788991 197.59987,34.1807339 197.870926,35.6036697 C198.111864,36.9963303 198.623859,38.3284404 199.40691,39.5394495 C200.159844,40.7504587 201.274185,41.7798165 202.719817,42.5669725 C204.16545,43.3844037 206.062842,43.7779817 208.442112,43.7779817 C210.821382,43.7779817 212.718774,43.3844037 214.164407,42.5669725 C215.610039,41.7495413 216.724381,40.7504587 217.537549,39.5394495 C218.350717,38.3284404 218.862712,37.0266055 219.133768,35.6036697 C219.374707,34.2110092 219.525293,32.9091743 219.525293,31.6981651 C219.525293,30.2449541 219.404824,28.7917431 219.194003,27.3688073 C218.983181,25.9458716 218.501304,24.6440367 217.74837,23.4633028 C217.025554,22.312844 215.911213,21.3743119 214.435463,20.6779817 C212.899478,19.9513761 210.911734,19.6183486 208.442112,19.6183486 Z" id="Shape" fill="#FFFFFF"></path>
                        <path d="M22.7385919,24.0082569 L12.4384615,13.6541284 L11.4445893,12.6550459 L5.66205997,6.84220183 C4.42724902,5.60091743 2.40938722,5.60091743 1.17457627,6.84220183 C-0.0602346806,8.08348624 -0.0602346806,10.1119266 1.17457627,11.353211 L6.32464146,16.5302752 L8.31238592,18.5284404 L18.2511082,28.5192661 C19.4859192,29.7605505 21.503781,29.7605505 22.7385919,28.5192661 C23.9734029,27.2779817 23.9734029,25.2495413 22.7385919,24.0082569 Z" id="Shape" fill="#F17273"></path>
                    </g>
                    <path d="M66.9697773,33.4850028 C66.9697773,29.9456706 66.5768823,26.8562535 65.7608696,24.2767402 C64.9750795,21.7272213 63.947508,19.5076401 62.6781548,17.737974 C61.4994698,16.0882852 60.1696713,14.7085456 58.6887593,13.5687606 C58.5376458,13.4487832 58.3563097,13.2988115 58.2051962,13.1788342 C56.4825027,11.9190719 54.6993637,10.8392756 52.9766702,10.0594228 C48.7757158,8.16977929 43.8796394,7.1499717 38.5,7 C36.9284199,7.02999434 35.447508,7.1499717 33.966596,7.35993209 L44.1818664,17.4980192 C45.0281018,17.737974 45.8138918,18.0679117 46.5090138,18.4578381 C48.5339343,19.5976231 50.1055143,21.0073571 51.1633086,22.6870402 C52.2513256,24.3667233 52.9766702,26.196378 53.3393425,28.1460102 C53.7020148,30.0956423 53.883351,31.8653084 53.883351,33.5149972 C53.883351,35.1646859 53.7020148,36.934352 53.3393425,38.8839842 C53.3393425,38.9439728 53.3091198,38.9739672 53.3091198,39.0339559 L53.3393425,39.0639502 C52.9766702,40.983588 52.2513256,42.7832484 51.1935313,44.4629315 C50.1055143,46.1426146 48.5641569,47.5523486 46.5392365,48.6921336 C45.7534464,49.1120543 44.907211,49.4719864 43.9400848,49.7419355 L43.8191941,49.6219581 C42.2778367,50.0418789 40.5249205,50.2818336 38.4697773,50.2818336 C35.145281,50.2818336 32.4554613,49.7119411 30.4305408,48.6021505 C28.4056204,47.4623656 26.8340403,46.0826259 25.776246,44.3729485 C24.9602333,43.0831919 24.3557794,41.7334465 23.9326617,40.3237125 L10.5440085,27.0062252 C10.3324496,28.1160158 10.1813362,29.2857951 10.0906681,30.5455574 C10.0906681,30.6955291 10.0604454,30.8455008 10.0604454,30.9954726 C10.0604454,31.0554612 10.0604454,31.1154499 10.0604454,31.1754386 C10.0302227,31.9252971 10,32.70515 10,33.4850028 C10,33.4850028 10,33.5149972 10,33.5149972 C10,33.5149972 10,33.5449915 10,33.5449915 C10,37.0843237 10.392895,40.2037351 11.2089077,42.7832484 C11.9946978,45.3327674 13.0222694,47.5523486 14.2916225,49.3520091 C15.5307529,51.1216752 16.9814422,52.5913978 18.6134677,53.7611771 C19.2179215,54.1810979 19.8223754,54.6010187 20.4268293,54.9609508 C21.635737,55.7408036 22.8144221,56.4006791 24.0233298,56.9405772 C28.2242842,58.8302207 33.1203606,59.8500283 38.5,60 C43.426299,59.8800226 47.8992577,59.0101868 51.7979852,57.4804754 L51.6770944,57.360498 C52.1304348,57.180532 52.5535525,57.0305603 52.9766702,56.8505942 C54.7295864,56.040747 56.5127253,54.9909451 58.2656416,53.7611771 C59.8674443,52.6213922 61.3181336,51.1216752 62.5874867,49.3520091 C62.7386002,49.1120543 62.9199364,48.9020939 63.0710498,48.6321449 L63.1012725,48.6621392 C64.1892895,46.9524618 65.0959703,44.942841 65.821315,42.6632711 C66.3653234,40.893605 66.7279958,38.8839842 66.8791092,36.6344086 C66.9093319,36.4244482 66.9093319,36.2144878 66.9395546,36.0345218 C66.9395546,36.0345218 66.9395546,36.0045274 66.9395546,36.0045274 C67,35.2246746 67,34.3848331 67,33.5449915 C67,33.5449915 67,33.5149972 67,33.5149972 C66.9697773,33.5149972 66.9697773,33.4850028 66.9697773,33.4850028 Z" id="Shape" fill="#FFFFFF"></path>
                    <path d="M24,27.6068422 L14.5662992,18.1189248 L5.43496063,8.93510725 C4.19527559,7.68829758 2.16944882,7.68829758 0.92976378,8.93510725 C-0.30992126,10.1819169 -0.30992126,12.2193864 0.92976378,13.466196 L11.6031496,24.2009232 L23.3348031,36 C23.2743307,35.3309802 23.2440945,34.6923704 23.2440945,34.0537605 C23.2440945,32.381211 23.4255118,30.5566115 23.7883465,28.579962 C23.8488189,28.2758621 23.9395276,27.9413522 24,27.6068422 Z" id="Shape" fill="#ADCA00"></path>
                    <path d="M30.3062522,8.04287516 L23.3334511,0.930643127 C22.1169198,-0.310214376 20.1289297,-0.310214376 18.9123984,0.930643127 C17.6958672,2.17150063 17.6958672,4.19924338 18.9123984,5.44010088 L23.7191805,10.3430013 L31.2260685,18 C33.0360297,17.2433796 35.2613917,16.8802018 37.9318262,16.8802018 C38.2878841,16.8802018 38.6439421,16.8802018 39,16.9104666 L30.3062522,8.04287516 Z" id="Shape" fill="#00ADF2"></path>
                </g>
            </g>
        </g>
    </g>
</svg>