<?xml version="1.0" encoding="utf-8"?>
<!-- Generator: Adobe Illustrator 18.1.1, SVG Export Plug-In . SVG Version: 6.00 Build 0)  -->
<!DOCTYPE svg PUBLIC "-//W3C//DTD SVG 1.1//EN" "http://www.w3.org/Graphics/SVG/1.1/DTD/svg11.dtd">
<svg version="1.1" id="Layer_1" xmlns="http://www.w3.org/2000/svg" xmlns:xlink="http://www.w3.org/1999/xlink" x="0px" y="0px"
	 viewBox="0 0 1024 1024" enable-background="new 0 0 1024 1024" xml:space="preserve">
<rect x="-1050.1" y="0" fill="#323C49" width="1024" height="1024"/>
<g>
	<g>
		<path fill="#323C49" d="M328.2,530.9c0-11.2,1.4-21.3,4.1-30.1c2.8-8.8,7.2-16.3,13.2-22.5c6.1-6.2,13.7-10.9,23.1-14.2
			c9.3-3.3,20.7-5,34.1-5c14,0.4,26.5,3,37.6,8c4.7,2.1,9.3,4.9,13.9,8.3c4.6,3.4,8.6,7.6,12.1,12.7c3.5,5.1,6.4,11.1,8.6,18.1
			c2.2,7,3.3,15.1,3.3,24.4c0,9.3-1,17.4-3,24.4c-2,7-4.7,12.9-8,17.9c-3.3,5-7,9.1-11.2,12.4c-4.1,3.3-8.4,6-12.9,8.2
			c-10.2,4.8-21.9,7.3-35,7.5c-6.6-0.4-13-1.5-19.1-3.5c-5.3-1.8-10.7-4.6-16.2-8.6c-5.5-3.9-10.1-9.6-13.7-17.1l7,7.8v63.7h-37.9
			V530.9z M402.7,490.8c-8.3,0-14.9,1.2-19.8,3.5c-4.9,2.3-8.6,5.4-11,9.2c-2.4,3.8-4,8.1-4.8,12.9c-0.7,4.7-1.1,9.5-1.1,14.3
			c0,3.9,0.4,8.2,1.3,12.9c0.8,4.6,2.6,9,5.3,13c2.7,4,6.4,7.4,11.2,10c4.8,2.7,11.1,4,19,4c7.9,0,14.2-1.3,19-4
			c4.8-2.7,8.4-6,11-10s4.2-8.3,5.1-13c0.8-4.6,1.3-8.9,1.3-12.9c0-3.9-0.4-8.2-1.3-12.9c-0.9-4.6-2.5-9-5.1-13
			c-2.5-4-6.2-7.4-11-10C416.9,492.1,410.6,490.8,402.7,490.8z"/>
		<path fill="#323C49" d="M631.1,541.1c-2.7-4.4-6.3-8.1-10.7-10.9c-4.4-2.9-9.3-5.1-14.8-6.6c-5.5-1.6-10.9-2.7-16.3-3.4
			c-5.4-0.7-40.1-3.8-44.7-5.8c-4.6-2-6.5-4.9-6.8-8.7c-0.6-8.9,8.8-11,13.2-11.3c7.2-0.5,15.6-0.3,15.6-0.3h61.2l-0.5-31
			c-30.9,0.2-75.9-0.6-89.3,1.8c-7.4,1.3-13.9,4.2-19.6,7.7c-5.7,3.4-10.3,7.9-13.9,13.4c-3.5,5.5-5.3,11.9-5.4,19.3
			c-0.1,6.7,2,12.2,5,17.5c3.1,5.5,7.8,10.5,13.4,13.8c5.5,3.3,11.8,5.5,18.7,7.2c6.9,1.7,18.8,3.5,25.8,4.1
			c10.5,0.9,19.6,1.3,26.1,3.8c1.7,0.7,6.8,3.8,6.8,8.5s-2.1,7.4-6.3,8.9c-5,1.8-14.9,1.7-14.9,1.7h-68.9v31.6l60.6,0
			c0,0,16-0.4,21-1c8.2-1,15.9-2.7,23-5.8c7.2-3.1,13.2-7.6,18.2-13.6c5-6,7.5-14.1,7.6-24.3C635.2,551,633.9,545.5,631.1,541.1z"/>
		<path fill="#323C49" d="M695.4,494.5c0,0,0,54.1,0,56.9c0,7.7,4.9,14.5,20.1,14.5h24.2v32.4h-38.9c-8.3-0.7-15.7-2.7-22.3-5.9
			c-5.5-2.7-10.6-6.6-15.1-11.9c-4.6-5.3-6.8-12.5-6.8-21.8V426.3h38.9v36.4h36.6v31.9H695.4z"/>
		<path fill="#323C49" d="M907.6,598.4h-37.9v-18.7l7-7.8c-3.6,7.5-8.2,13.2-13.7,17.1c-5.5,3.9-10.9,6.8-16.3,8.6
			c-6.2,2-12.5,3.1-19.1,3.5c-13.2-0.2-24.9-2.7-35-7.5c-4.5-2.1-8.8-4.9-12.9-8.2c-4.1-3.3-7.9-7.4-11.2-12.4c-3.3-5-6-11-8-17.9
			c-2-7-3-15.1-3-24.4c0-9.3,1.1-17.4,3.2-24.4c2.1-7,4.9-13,8.4-18.1c3.5-5.1,7.5-9.3,12.1-12.7c4.6-3.4,9.2-6.2,13.9-8.3
			c11-5,23.7-7.7,37.9-8c13.4,0,24.7,1.7,34.1,5c9.3,3.3,17,8,23.1,14.2c6.1,6.2,10.5,13.7,13.2,22.5c2.8,8.8,4.1,18.9,4.1,30.1
			V598.4z M833.1,490.8c-7.9,0-14.2,1.3-19,4c-4.8,2.7-8.4,6-11,10c-2.5,4-4.3,8.3-5.1,13c-0.9,4.6-1.3,8.9-1.3,12.9
			c0,3.9,0.4,8.2,1.3,12.9c0.8,4.6,2.5,9,5.1,13s6.2,7.4,11,10c4.8,2.7,11.1,4,19,4c7.9,0,14.2-1.3,19-4c4.8-2.7,8.5-6,11.2-10
			c2.7-4,4.4-8.3,5.3-13c0.8-4.6,1.3-8.9,1.3-12.9c0-4.8-0.4-9.6-1.1-14.3c-0.7-4.7-2.3-9-4.8-12.9c-2.4-3.8-6.1-6.9-11-9.2
			C847.9,491.9,841.3,490.8,833.1,490.8z"/>
		<path fill="#F17273" d="M216.5,505.3l-34.2-34.2l-3.3-3.3l-19.2-19.2c-4.1-4.1-10.8-4.1-14.9,0c-4.1,4.1-4.1,10.8,0,14.9
			l17.1,17.1l6.6,6.6l33,33c4.1,4.1,10.8,4.1,14.9,0C220.6,516.1,220.6,509.4,216.5,505.3z"/>
	</g>
	<path fill="#323C49" d="M307.7,518.6c0-11.8-1.3-22.1-4-30.7c-2.6-8.5-6-15.9-10.2-21.8c-3.9-5.5-8.3-10.1-13.2-13.9
		c-0.5-0.4-1.1-0.9-1.6-1.3c-5.7-4.2-11.6-7.8-17.3-10.4c-13.9-6.3-30.1-9.7-47.9-10.2c-5.2,0.1-10.1,0.5-15,1.2l33.8,33.8
		c2.8,0.8,5.4,1.9,7.7,3.2c6.7,3.8,11.9,8.5,15.4,14.1c3.6,5.6,6,11.7,7.2,18.2c1.2,6.5,1.8,12.4,1.8,17.9c0,5.5-0.6,11.4-1.8,17.9
		c0,0.2-0.1,0.3-0.1,0.5l0.1,0.1c-1.2,6.4-3.6,12.4-7.1,18c-3.6,5.6-8.7,10.3-15.4,14.1c-2.6,1.4-5.4,2.6-8.6,3.5l-0.4-0.4
		c-5.1,1.4-10.9,2.2-17.7,2.2c-11,0-19.9-1.9-26.6-5.6c-6.7-3.8-11.9-8.4-15.4-14.1c-2.7-4.3-4.7-8.8-6.1-13.5L121,497
		c-0.7,3.7-1.2,7.6-1.5,11.8c0,0.5-0.1,1-0.1,1.5c0,0.2,0,0.4,0,0.6c-0.1,2.5-0.2,5.1-0.2,7.7c0,0,0,0.1,0,0.1c0,0,0,0.1,0,0.1
		c0,11.8,1.3,22.2,4,30.8c2.6,8.5,6,15.9,10.2,21.9c4.1,5.9,8.9,10.8,14.3,14.7c2,1.4,4,2.8,6,4c4,2.6,7.9,4.8,11.9,6.6
		c13.9,6.3,30.1,9.7,47.9,10.2c16.3-0.4,31.1-3.3,44-8.4l-0.4-0.4c1.5-0.6,2.9-1.1,4.3-1.7c5.8-2.7,11.7-6.2,17.5-10.3
		c5.3-3.8,10.1-8.8,14.3-14.7c0.5-0.8,1.1-1.5,1.6-2.4l0.1,0.1c3.6-5.7,6.6-12.4,9-20c1.8-5.9,3-12.6,3.5-20.1
		c0.1-0.7,0.1-1.4,0.2-2c0,0,0-0.1,0-0.1c0.2-2.6,0.2-5.4,0.2-8.2c0,0,0-0.1,0-0.1C307.7,518.7,307.7,518.6,307.7,518.6z"/>
	<path fill="#ADCA00" d="M164.9,497.3l-31.2-31.2l-30.2-30.2c-4.1-4.1-10.8-4.1-14.9,0c-4.1,4.1-4.1,10.8,0,14.9l35.3,35.3
		l38.8,38.8c-0.2-2.2-0.3-4.3-0.3-6.4c0-5.5,0.6-11.5,1.8-18C164.4,499.5,164.7,498.4,164.9,497.3z"/>
	<path fill="#00ADF2" d="M187.7,433.4l-23.5-23.5c-4.1-4.1-10.8-4.1-14.9,0c-4.1,4.1-4.1,10.8,0,14.9l16.2,16.2l25.3,25.3
		c6.1-2.5,13.6-3.7,22.6-3.7c1.2,0,2.4,0,3.6,0.1L187.7,433.4z"/>
</g>
<g>
	<path fill="#F17273" d="M530.2,1602.1l-116-116l-11-11l-65.1-65.1c-13.9-13.9-36.7-13.9-50.6,0c-13.9,13.9-13.9,36.7,0,50.6l58,58
		l22.3,22.3l111.8,111.8c13.9,13.9,36.7,13.9,50.6,0C544.2,1638.8,544.2,1616,530.2,1602.1z"/>
	<path fill="#323C49" d="M839.1,1647.1c0-40-4.5-75.1-13.4-104.2c-8.8-28.9-20.5-53.8-34.7-74c-13.1-18.6-28.1-34.4-44.7-47
		c-1.8-1.5-3.7-2.9-5.6-4.3c-19.4-14.4-39.2-26.3-58.6-35.2c-47.2-21.3-101.9-33-162.5-34.7c-17.5,0.5-34.4,1.8-50.8,3.8
		l114.7,114.7c9.6,2.9,18.4,6.5,26.3,10.9c22.8,12.7,40.2,28.7,52.3,47.8c12.2,19.1,20.2,39.7,24.3,61.8c4,21.9,6,42.1,6,60.7
		c0,18.5-2,38.8-6,60.7c-0.1,0.6-0.3,1.2-0.4,1.7l0.2,0.2c-4.1,21.8-12.1,42-24.1,60.9c-12.1,19.1-29.6,35-52.3,47.8
		c-8.6,4.8-18.4,8.8-29.2,11.8l-1.2-1.2c-17.3,4.7-37.1,7.4-59.9,7.4c-37.4,0-67.5-6.4-90.2-19.1c-22.8-12.7-40.2-28.6-52.3-47.7
		c-9.2-14.4-16-29.7-20.6-45.9L206.3,1574c-2.3,12.5-3.9,25.8-4.9,39.9c-0.1,1.6-0.3,3.3-0.4,4.9c0,0.7-0.1,1.4-0.1,2.1
		c-0.5,8.5-0.8,17.2-0.8,26.3c0,0.2,0,0.3,0,0.5c0,0.2,0,0.3,0,0.5c0,40.1,4.5,75.2,13.4,104.3c8.8,28.9,20.5,53.9,34.7,74.1
		c14,20,30.3,36.8,48.3,49.8c6.7,4.9,13.5,9.4,20.3,13.7c13.4,8.7,26.9,16.3,40.2,22.4c47.2,21.3,101.9,33,162.5,34.6
		c55.4-1.5,105.5-11.1,149.2-28.4l-1.4-1.4c4.9-1.9,9.8-3.8,14.6-5.9c19.8-9.1,39.8-20.9,59.2-34.9c18-13,34.3-29.8,48.3-49.8
		c1.8-2.6,3.6-5.2,5.3-8l0.5,0.5c12.2-19.3,22.5-41.9,30.4-67.8c6.1-20,10.1-42.8,12-68.1c0.2-2.3,0.4-4.6,0.5-6.9
		c0-0.1,0-0.2,0-0.4c0.5-9,0.8-18.2,0.8-27.8c0-0.2,0-0.3,0-0.5C839.1,1647.4,839.1,1647.3,839.1,1647.1z"/>
	<path fill="#ADCA00" d="M355.2,1575l-105.7-105.7l-102.4-102.4c-13.9-13.9-36.7-13.9-50.6,0c-13.9,13.9-13.9,36.7,0,50.6
		l119.8,119.8l131.4,131.4c-0.6-7.4-0.9-14.7-0.9-21.6c0-18.7,2-39,6.1-61.1C353.5,1582.3,354.3,1578.6,355.2,1575z"/>
	<path fill="#00ADF2" d="M432.5,1358.3l-79.5-79.5c-13.9-13.9-36.7-13.9-50.6,0c-13.9,13.9-13.9,36.7,0,50.6l54.9,54.9l85.8,85.8
		c20.7-8.4,46.2-12.7,76.6-12.7c4.2,0,8.2,0.1,12.2,0.3L432.5,1358.3z"/>
</g>
<g>
	<g>
		<path fill="#FFFFFF" d="M-718.9,530.9c0-11.2,1.4-21.3,4.1-30.1c2.8-8.8,7.2-16.3,13.2-22.5c6.1-6.2,13.7-10.9,23.1-14.2
			c9.3-3.3,20.7-5,34.1-5c14,0.4,26.5,3,37.6,8c4.7,2.1,9.3,4.9,13.9,8.3c4.6,3.4,8.6,7.6,12.1,12.7c3.5,5.1,6.4,11.1,8.6,18.1
			c2.2,7,3.3,15.1,3.3,24.4c0,9.3-1,17.4-3,24.4c-2,7-4.7,12.9-8,17.9c-3.3,5-7,9.1-11.2,12.4c-4.1,3.3-8.4,6-12.9,8.2
			c-10.2,4.8-21.9,7.3-35,7.5c-6.6-0.4-13-1.5-19.1-3.5c-5.3-1.8-10.7-4.6-16.2-8.6c-5.5-3.9-10.1-9.6-13.7-17.1l7,7.8v63.7h-37.9
			V530.9z M-644.4,490.8c-8.3,0-14.9,1.2-19.8,3.5c-4.9,2.3-8.6,5.4-11,9.2c-2.4,3.8-4,8.1-4.8,12.9c-0.7,4.7-1.1,9.5-1.1,14.3
			c0,3.9,0.4,8.2,1.3,12.9c0.8,4.6,2.6,9,5.3,13c2.7,4,6.4,7.4,11.2,10c4.8,2.7,11.1,4,19,4c7.9,0,14.2-1.3,19-4
			c4.8-2.7,8.4-6,11-10s4.2-8.3,5.1-13c0.8-4.6,1.3-8.9,1.3-12.9c0-3.9-0.4-8.2-1.3-12.9c-0.9-4.6-2.5-9-5.1-13
			c-2.5-4-6.2-7.4-11-10C-630.2,492.1-636.5,490.8-644.4,490.8z"/>
		<path fill="#FFFFFF" d="M-416,541.1c-2.7-4.4-6.3-8.1-10.7-10.9c-4.4-2.9-9.3-5.1-14.8-6.6c-5.5-1.6-10.9-2.7-16.3-3.4
			c-5.4-0.7-40.1-3.8-44.7-5.8c-4.6-2-6.5-4.9-6.8-8.7c-0.6-8.9,8.8-11,13.2-11.3c7.2-0.5,15.6-0.3,15.6-0.3h61.2l-0.5-31
			c-30.9,0.2-75.9-0.6-89.3,1.8c-7.4,1.3-13.9,4.2-19.6,7.7c-5.7,3.4-10.3,7.9-13.9,13.4c-3.5,5.5-5.3,11.9-5.4,19.3
			c-0.1,6.7,2,12.2,5,17.5c3.1,5.5,7.8,10.5,13.4,13.8c5.5,3.3,11.8,5.5,18.7,7.2c6.9,1.7,18.8,3.5,25.8,4.1
			c10.5,0.9,19.6,1.3,26.1,3.8c1.7,0.7,6.8,3.8,6.8,8.5s-2.1,7.4-6.3,8.9c-5,1.8-14.9,1.7-14.9,1.7h-68.9v31.6l60.6,0
			c0,0,16-0.4,21-1c8.2-1,15.9-2.7,23-5.8c7.2-3.1,13.2-7.6,18.2-13.6c5-6,7.5-14.1,7.6-24.3C-411.9,551-413.3,545.5-416,541.1z"/>
		<path fill="#FFFFFF" d="M-351.7,494.5c0,0,0,54.1,0,56.9c0,7.7,4.9,14.5,20.1,14.5h24.2v32.4h-38.9c-8.3-0.7-15.7-2.7-22.3-5.9
			c-5.5-2.7-10.6-6.6-15.1-11.9c-4.6-5.3-6.8-12.5-6.8-21.8V426.3h38.9v36.4h36.6v31.9H-351.7z"/>
		<path fill="#FFFFFF" d="M-139.5,598.4h-37.9v-18.7l7-7.8c-3.6,7.5-8.2,13.2-13.7,17.1c-5.5,3.9-10.9,6.8-16.3,8.6
			c-6.2,2-12.5,3.1-19.1,3.5c-13.2-0.2-24.9-2.7-35-7.5c-4.5-2.1-8.8-4.9-12.9-8.2c-4.1-3.3-7.9-7.4-11.2-12.4c-3.3-5-6-11-8-17.9
			c-2-7-3-15.1-3-24.4c0-9.3,1.1-17.4,3.2-24.4c2.1-7,4.9-13,8.4-18.1c3.5-5.1,7.5-9.3,12.1-12.7c4.6-3.4,9.2-6.2,13.9-8.3
			c11-5,23.7-7.7,37.9-8c13.4,0,24.7,1.7,34.1,5c9.3,3.3,17,8,23.1,14.2c6.1,6.2,10.5,13.7,13.2,22.5c2.8,8.8,4.1,18.9,4.1,30.1
			V598.4z M-214,490.8c-7.9,0-14.2,1.3-19,4c-4.8,2.7-8.4,6-11,10c-2.5,4-4.3,8.3-5.1,13c-0.9,4.6-1.3,8.9-1.3,12.9
			c0,3.9,0.4,8.2,1.3,12.9c0.8,4.6,2.5,9,5.1,13c2.5,4,6.2,7.4,11,10c4.8,2.7,11.1,4,19,4c7.9,0,14.2-1.3,19-4
			c4.8-2.7,8.5-6,11.2-10c2.7-4,4.4-8.3,5.3-13c0.8-4.6,1.3-8.9,1.3-12.9c0-4.8-0.4-9.6-1.1-14.3c-0.7-4.7-2.3-9-4.8-12.9
			c-2.4-3.8-6.1-6.9-11-9.2C-199.2,491.9-205.8,490.8-214,490.8z"/>
		<path fill="#F17273" d="M-830.6,505.3l-34.2-34.2l-3.3-3.3l-19.2-19.2c-4.1-4.1-10.8-4.1-14.9,0c-4.1,4.1-4.1,10.8,0,14.9
			l17.1,17.1l6.6,6.6l33,33c4.1,4.1,10.8,4.1,14.9,0C-826.5,516.1-826.5,509.4-830.6,505.3z"/>
	</g>
	<path fill="#FFFFFF" d="M-739.5,518.6c0-11.8-1.3-22.1-4-30.7c-2.6-8.5-6-15.9-10.2-21.8c-3.9-5.5-8.3-10.1-13.2-13.9
		c-0.5-0.4-1.1-0.9-1.6-1.3c-5.7-4.2-11.6-7.8-17.3-10.4c-13.9-6.3-30.1-9.7-47.9-10.2c-5.2,0.1-10.1,0.5-15,1.2l33.8,33.8
		c2.8,0.8,5.4,1.9,7.7,3.2c6.7,3.8,11.9,8.5,15.4,14.1c3.6,5.6,6,11.7,7.2,18.2c1.2,6.5,1.8,12.4,1.8,17.9c0,5.5-0.6,11.4-1.8,17.9
		c0,0.2-0.1,0.3-0.1,0.5l0.1,0.1c-1.2,6.4-3.6,12.4-7.1,18c-3.6,5.6-8.7,10.3-15.4,14.1c-2.6,1.4-5.4,2.6-8.6,3.5l-0.4-0.4
		c-5.1,1.4-10.9,2.2-17.7,2.2c-11,0-19.9-1.9-26.6-5.6c-6.7-3.8-11.9-8.4-15.4-14.1c-2.7-4.3-4.7-8.8-6.1-13.5l-44.3-44.3
		c-0.7,3.7-1.2,7.6-1.5,11.8c0,0.5-0.1,1-0.1,1.5c0,0.2,0,0.4,0,0.6c-0.1,2.5-0.2,5.1-0.2,7.7c0,0,0,0.1,0,0.1c0,0,0,0.1,0,0.1
		c0,11.8,1.3,22.2,4,30.8c2.6,8.5,6,15.9,10.2,21.9c4.1,5.9,8.9,10.8,14.3,14.7c2,1.4,4,2.8,6,4c4,2.6,7.9,4.8,11.9,6.6
		c13.9,6.3,30.1,9.7,47.9,10.2c16.3-0.4,31.1-3.3,44-8.4l-0.4-0.4c1.5-0.6,2.9-1.1,4.3-1.7c5.8-2.7,11.7-6.2,17.5-10.3
		c5.3-3.8,10.1-8.8,14.3-14.7c0.5-0.8,1.1-1.5,1.6-2.4l0.1,0.1c3.6-5.7,6.6-12.4,9-20c1.8-5.9,3-12.6,3.5-20.1
		c0.1-0.7,0.1-1.4,0.2-2c0,0,0-0.1,0-0.1c0.2-2.6,0.2-5.4,0.2-8.2c0,0,0-0.1,0-0.1C-739.5,518.7-739.5,518.6-739.5,518.6z"/>
	<path fill="#ADCA00" d="M-882.2,497.3l-31.2-31.2l-30.2-30.2c-4.1-4.1-10.8-4.1-14.9,0c-4.1,4.1-4.1,10.8,0,14.9l35.3,35.3
		l38.8,38.8c-0.2-2.2-0.3-4.3-0.3-6.4c0-5.5,0.6-11.5,1.8-18C-882.7,499.5-882.5,498.4-882.2,497.3z"/>
	<path fill="#00ADF2" d="M-859.4,433.4l-23.5-23.5c-4.1-4.1-10.8-4.1-14.9,0c-4.1,4.1-4.1,10.8,0,14.9l16.2,16.2l25.3,25.3
		c6.1-2.5,13.6-3.7,22.6-3.7c1.2,0,2.4,0,3.6,0.1L-859.4,433.4z"/>
</g>
<rect x="-1054.1" y="1092" fill="#323C49" width="1024" height="1024"/>
<g>
	<path fill="#F17273" d="M-514.9,1602.1l-116-116l-11-11L-707,1410c-13.9-13.9-36.7-13.9-50.6,0c-13.9,13.9-13.9,36.7,0,50.6l58,58
		l22.3,22.3l111.8,111.8c13.9,13.9,36.7,13.9,50.6,0C-501,1638.8-501,1616-514.9,1602.1z"/>
	<path fill="#FFFFFF" d="M-206,1647.1c0-40-4.5-75.1-13.4-104.2c-8.8-28.9-20.5-53.8-34.7-74c-13.1-18.6-28.1-34.4-44.7-47
		c-1.8-1.5-3.7-2.9-5.6-4.3c-19.4-14.4-39.2-26.3-58.6-35.2c-47.2-21.3-101.9-33-162.5-34.7c-17.5,0.5-34.4,1.8-50.8,3.8
		l114.7,114.7c9.6,2.9,18.4,6.5,26.3,10.9c22.8,12.7,40.2,28.7,52.3,47.8c12.2,19.1,20.2,39.7,24.3,61.8c4,21.9,6,42.1,6,60.7
		c0,18.5-2,38.8-6,60.7c-0.1,0.6-0.3,1.2-0.4,1.7l0.2,0.2c-4.1,21.8-12.1,42-24.1,60.9c-12.1,19.1-29.6,35-52.3,47.8
		c-8.6,4.8-18.4,8.8-29.2,11.8l-1.2-1.2c-17.3,4.7-37.1,7.4-59.9,7.4c-37.4,0-67.5-6.4-90.2-19.1c-22.8-12.7-40.2-28.6-52.3-47.7
		c-9.2-14.4-16-29.7-20.6-45.9L-838.8,1574c-2.3,12.5-3.9,25.8-4.9,39.9c-0.1,1.6-0.3,3.3-0.4,4.9c0,0.7-0.1,1.4-0.1,2.1
		c-0.5,8.5-0.8,17.2-0.8,26.3c0,0.2,0,0.3,0,0.5c0,0.2,0,0.3,0,0.5c0,40.1,4.5,75.2,13.4,104.3c8.8,28.9,20.5,53.9,34.7,74.1
		c14,20,30.3,36.8,48.3,49.8c6.7,4.9,13.5,9.4,20.3,13.7c13.4,8.7,26.9,16.3,40.2,22.4c47.2,21.3,101.9,33,162.5,34.6
		c55.4-1.5,105.5-11.1,149.2-28.4l-1.4-1.4c4.9-1.9,9.8-3.8,14.6-5.9c19.8-9.1,39.8-20.9,59.2-34.9c18-13,34.3-29.8,48.3-49.8
		c1.8-2.6,3.6-5.2,5.3-8l0.5,0.5c12.2-19.3,22.5-41.9,30.4-67.8c6.1-20,10.1-42.8,12-68.1c0.2-2.3,0.4-4.6,0.5-6.9
		c0-0.1,0-0.2,0-0.4c0.5-9,0.8-18.2,0.8-27.8c0-0.2,0-0.3,0-0.5C-206,1647.4-206,1647.3-206,1647.1z"/>
	<path fill="#ADCA00" d="M-689.9,1575l-105.7-105.7L-898,1366.9c-13.9-13.9-36.7-13.9-50.6,0c-13.9,13.9-13.9,36.7,0,50.6
		l119.8,119.8l131.4,131.4c-0.6-7.4-0.9-14.7-0.9-21.6c0-18.7,2-39,6.1-61.1C-691.6,1582.3-690.8,1578.6-689.9,1575z"/>
	<path fill="#00ADF2" d="M-612.6,1358.3l-79.5-79.5c-13.9-13.9-36.7-13.9-50.6,0c-13.9,13.9-13.9,36.7,0,50.6l54.9,54.9l85.8,85.8
		c20.7-8.4,46.2-12.7,76.6-12.7c4.2,0,8.2,0.1,12.2,0.3L-612.6,1358.3z"/>
</g>
</svg>
